<?xml version="1.0" encoding="iso-8859-1"?>
<!-- Generator: Adobe Illustrator 18.1.1, SVG Export Plug-In . SVG Version: 6.00 Build 0)  -->
<svg xmlns="http://www.w3.org/2000/svg" xmlns:xlink="http://www.w3.org/1999/xlink" version="1.1" id="Capa_1" x="0px" y="0px" viewBox="0 0 269.732 269.732" style="enable-background:new 0 0 269.732 269.732;" xml:space="preserve" width="512px" height="512px">
<g>
	<path d="M25.219,252.214c0,9.678,12.548,17.519,28.026,17.519h160.819c15.478,0,28.032-7.84,28.032-17.519   v-17.525H25.219C25.219,234.689,25.219,242.529,25.219,252.214z" fill="#555555"/>
	<path d="M242.103,183.296H25.219c0,0,0,7.84,0,17.525c0,9.672,12.548,17.519,28.026,17.519h160.819   c15.478,0,28.032-7.84,28.032-17.519v-17.525H242.103z" fill="#555555"/>
	<path d="M242.103,127.798H25.219c0,0,0,7.84,0,17.519c0,9.678,12.548,17.525,28.026,17.525h160.819   c15.478,0,28.032-7.84,28.032-17.525v-17.519H242.103z" fill="#555555"/>
	<path d="M244.513,49.161c0-3.574-0.036-5.221-0.471-5.531C240.289,19.267,192.906,0,134.866,0   C76.844,0,29.497,19.249,25.696,43.594c-0.436,0.274-0.477,1.951-0.477,5.567V85.75c0,15.478,12.56,28.032,28.056,28.032h163.182   c15.496,0,28.056-12.548,28.056-28.032V49.161z" fill="#555555"/>
</g>
<g>
</g>
<g>
</g>
<g>
</g>
<g>
</g>
<g>
</g>
<g>
</g>
<g>
</g>
<g>
</g>
<g>
</g>
<g>
</g>
<g>
</g>
<g>
</g>
<g>
</g>
<g>
</g>
<g>
</g>
</svg>
