<?xml version="1.0" encoding="utf-8"?>
<!-- Svg Vector Icons : http://www.onlinewebfonts.com/icon -->
<!DOCTYPE svg PUBLIC "-//W3C//DTD SVG 1.1//EN" "http://www.w3.org/Graphics/SVG/1.1/DTD/svg11.dtd">
<svg version="1.1" xmlns="http://www.w3.org/2000/svg" xmlns:xlink="http://www.w3.org/1999/xlink" x="0px" y="0px" viewBox="0 0 1000 1000" enable-background="new 0 0 1000 1000" xml:space="preserve">
<metadata> Svg Vector Icons : http://www.onlinewebfonts.com/icon </metadata>
<g><g transform="translate(0.000000,512.000000) scale(0.100000,-0.100000)"><path style="fill:#555555;" d="M1474.3,4901.3l-5.7-120.6l-84.2-13.4c-181.8-30.6-375.2-193.3-465.1-390.5c-42.1-90-44-114.8-49.8-719.7l-5.8-627.8H5000h4136.3l-5.7,637.4c-5.8,604.8-7.7,639.3-47.9,725.4C8998.5,4574,8809,4731,8619.5,4775l-97.6,21V4909v111H5000H1480L1474.3,4901.3z M2580.6,4344.3c225.9-114.8,336.9-373.2,266.1-616.3l-32.5-111l-359.8,359.8c-199.1,199.1-357.9,367.5-352.2,373.2C2172.9,4420.9,2435.2,4419,2580.6,4344.3z M4418.1,4344.3c225.9-114.8,336.9-373.2,266.1-616.3l-32.5-111l-359.8,359.8c-199.1,199.1-357.9,367.5-352.2,377.1C3981.7,4422.8,4276.5,4417.1,4418.1,4344.3z M6167.6,4376.9c145.4-44,292.9-191.4,336.9-342.6c32.6-118.7,28.7-258.4-11.5-361.8l-21.1-57.4l-361.8,361.8c-199,199.1-356,369.4-348.3,375.2c22.9,23,143.6,51.7,225.8,53.6C6029.8,4407.5,6110.2,4394.1,6167.6,4376.9z M8005.1,4376.9c145.4-44,292.9-191.4,336.9-342.6c32.5-118.7,28.7-258.4-11.5-361.8l-21.1-57.4l-361.8,361.8c-199.1,199.1-356,369.4-348.3,375.2c22.9,23,143.6,51.7,225.8,53.6C7867.3,4407.5,7947.7,4394.1,8005.1,4376.9z M2232.3,3758.6l359.8-361.8l-72.7-24.9c-42.1-13.4-128.2-23-193.3-23c-292.8,1.9-522.5,235.4-522.5,528.3c0,95.7,34.5,243.1,55.5,243.1C1864.8,4120.4,2033.2,3957.7,2232.3,3758.6z M4069.8,3758.6l359.8-361.8l-72.7-24.9c-42.1-13.4-128.2-23-193.3-23c-287.1,1.9-522.5,235.4-522.5,516.8c0,91.9,34.4,254.6,55.5,254.6C3702.3,4120.4,3870.7,3957.7,4069.8,3758.6z M6182.9,3375.8c-34.5-13.4-120.6-26.8-191.4-26.8c-214.4,0-373.2,99.5-480.4,300.5c-47.9,91.9-57.4,327.3-17.2,421.1l24.9,57.4l363.7-363.7l361.8-361.8L6182.9,3375.8z M7737.1,3766.3c386.7-388.5,380.9-373.2,199.1-411.5c-246.9-51.7-534,118.7-602.9,357.9c-44,149.3-21.1,407.7,34.5,407.7C7377.3,4120.4,7541.9,3961.5,7737.1,3766.3z"/><path style="fill:#555555;" d="M865.6-377.7v-3100.8H5000h4134.4v3100.8v3100.8H5000H865.6V-377.7z M7970.6,2267.6c206.7-101.5,321.5-271.8,321.5-476.6c0-109.1-26.8-155-105.3-189.5c-158.8-65.1-310.1-1.9-346.4,145.5c-13.4,59.3-34.5,93.8-67,109.1c-61.2,32.5-5267.5,36.4-5351.7,3.8c-65.1-24.9-82.3-49.8-82.3-118.7c0-38.3-23-78.5-67-122.5c-65.1-65.1-72.7-67-174.2-59.3c-82.3,7.6-116.8,21-156.9,61.2c-45.9,44-51.7,65.1-49.8,164.6c5.7,254.6,204.8,480.4,472.8,535.9c44,7.7,1295.8,13.4,2779.2,13.4l2698.8-3.8L7970.6,2267.6z M7624.2,1147.9c46-24.9,111-82.3,141.7-126.3l57.4-82.3V-718.3v-1659.5l-45.9-72.7c-24.9-40.2-80.4-95.7-122.5-124.4l-78.5-51.7H4959.8H2343.3l-82.3,57.4c-44,32.5-101.4,95.7-126.3,141.7l-44,84.2v1600.2c0,1068,7.7,1625,21.1,1672.9c24.9,90,147.4,216.3,231.6,241.2c38.3,9.6,1073.8,19.1,2629.9,19.1l2566.8,1.9L7624.2,1147.9z"/><path style="fill:#555555;" d="M865.6-4282.3V-4780H5000h4134.4v497.7v497.7H5000H865.6V-4282.3z"/></g></g>
</svg>