<?xml version="1.0" encoding="utf-8"?>
<!-- Svg Vector Icons : http://www.onlinewebfonts.com/icon -->
<!DOCTYPE svg PUBLIC "-//W3C//DTD SVG 1.1//EN" "http://www.w3.org/Graphics/SVG/1.1/DTD/svg11.dtd">
<svg version="1.1" xmlns="http://www.w3.org/2000/svg" xmlns:xlink="http://www.w3.org/1999/xlink" x="0px" y="0px" viewBox="0 0 1000 1000" enable-background="new 0 0 1000 1000" xml:space="preserve">
<metadata> Svg Vector Icons : http://www.onlinewebfonts.com/icon </metadata>
<g><path style="fill:#555555;" d="M500,10C229.4,10,10,229.4,10,500s219.4,490,490,490s490-219.4,490-490S770.6,10,500,10z M560.9,561.3H438.8v245H316.3V530.6V500V255v-61.3h61.3h183.4c101.7,0,184.1,81.9,184.1,183.8C745,479.1,662.7,561.3,560.9,561.3z"/><path style="fill:#555555;" d="M560.9,316.3H438.8v122.5h122.2c34.2,0,61.6-27.4,61.6-61.3C622.5,343.4,595.2,316.3,560.9,316.3z"/></g>
</svg>